<svg xmlns="http://www.w3.org/2000/svg" viewBox="0 0 32.25 27.94"><defs><style>.cls-1{fill:#f9b233;}</style></defs><title>icon_menos_r</title><g id="Capa_2" data-name="Capa 2"><g id="Capa_1-2" data-name="Capa 1"><path class="cls-1" d="M16.13,4.36H.54C0,4.36,0,4.36,0,3.82V.51C0,0,0,0,.5,0H31.68c.57,0,.57,0,.57.58V3.86c0,.5,0,.5-.5.5Z"/><path class="cls-1" d="M16.13,7.88H31.71c.54,0,.54,0,.54.53v3.35c0,.46,0,.48-.46.48H.37c-.27,0-.37-.1-.37-.37,0-1,0-2,0-3s0-1,1-1Z"/><path class="cls-1" d="M16.13,20.06H.54c-.54,0-.54,0-.54-.53V16.18c0-.46,0-.48.47-.48H32c.17,0,.25.09.25.26V19.8c0,.17-.08.26-.25.26H16.13Z"/><path class="cls-1" d="M16.13,27.94H.54c-.54,0-.54,0-.54-.54V24.08c0-.5,0-.5.5-.5H31.68c.57,0,.57,0,.57.57v3.28c0,.51,0,.51-.5.51Z"/></g></g></svg>