<svg xmlns="http://www.w3.org/2000/svg" viewBox="0 0 24.64 23.71"><defs><style>.cls-1{fill:#fff;}</style></defs><title>icon-usuario</title><g id="Capa_2" data-name="Capa 2"><g id="Capa_1-2" data-name="Capa 1"><path class="cls-1" d="M24.64,21.62v1.25c0,.21-.05.42-.05.63s-.06.23-.23.21a.4.4,0,0,0-.11,0H.41a.75.75,0,0,0-.15,0c-.14,0-.18-.05-.19-.18s0-.42,0-.63a6.12,6.12,0,0,1,.36-2.81A8,8,0,0,1,3,16.73a13.2,13.2,0,0,1,4.68-2.26l.56-.15-.17-.11a7.53,7.53,0,0,1-1.59-1.39A7.53,7.53,0,0,1,4.73,6.23,7.54,7.54,0,0,1,10,.35,8.22,8.22,0,0,1,11.57,0h1.51l.07,0a7.48,7.48,0,0,1,4.47,2.05A7.53,7.53,0,0,1,20,8.89a7.56,7.56,0,0,1-3.41,5.34s-.1,0-.11.1h.05l.11,0a14,14,0,0,1,4.54,2,9,9,0,0,1,2.61,2.73A6.67,6.67,0,0,1,24.64,21.62Z"/></g></g></svg>