<svg xmlns="http://www.w3.org/2000/svg" viewBox="0 0 27.38 27.49"><defs><style>.cls-1{fill:#f9b233;}</style></defs><title>icon_barato</title><g id="Capa_2" data-name="Capa 2"><g id="Capa_1-2" data-name="Capa 1"><path class="cls-1" d="M13.63,0c2.23,0,4.47.07,6.71,0,1.47-.06,1.92.56,1.89,1.94-.06,2.83,0,5.67,0,8.5,0,2.46,0,2.46,2.54,2.47.3,0,.6,0,.89,0,.63,0,1.39-.14,1.68.64S27,14.63,26.55,15q-5.1,5.13-10.23,10.23c-2.91,2.89-2.26,3.06-5.3,0q-5-5-10-10c-.47-.47-1.23-.9-.93-1.71s1.15-.62,1.81-.64c3.57-.07,3.2.54,3.22-3.3,0-2.59,0-5.17,0-7.76C5.07.55,5.5,0,6.91,0,9.15.1,11.39,0,13.63,0Zm-11,14.64c3.49,3.48,6.82,6.74,10.06,10.09.83.85,1.26.68,2-.07,3-3.06,6-6.05,9-9.09.26-.25.69-.43.62-1H22.88c-2.25,0-2.31-.07-2.32-2.38,0-3-.06-6.07,0-9.09,0-1.35-.44-1.7-1.72-1.68-3.52.08-7,.06-10.58,0-1.09,0-1.64.22-1.6,1.48.08,2.78,0,5.56,0,8.34,0,3.53.27,3.35-3.29,3.33C3.27,14.56,3.13,14.6,2.62,14.67Z"/><path class="cls-1" d="M10.71,13.85c.58,0,.73.42.9.84A2,2,0,0,0,13.31,16c1,.09,2,0,2.34-1.08s-.57-1.67-1.51-2c-.61-.21-1.25-.33-1.86-.53a2.71,2.71,0,0,1-2-2.17,3,3,0,0,1,1.18-2.89c.6-.48,1.34-.73,1.57-1.67.13-.55,1.1-.56,1.19-.15.27,1.21,1.43,1.45,2,2.24a3.76,3.76,0,0,1,.52.91c.13.35.35.8-.15,1a.8.8,0,0,1-1.06-.27,2.81,2.81,0,0,0-1.15-1.14,1.6,1.6,0,0,0-2.28.7c-.5,1,.08,1.62,1,2,.74.28,1.52.46,2.27.71a2.76,2.76,0,0,1,2,2.51A2.92,2.92,0,0,1,15.83,17c-.59.35-1.27.52-1.52,1.31-.14.44-.85.53-1,.26-.67-1.29-2.34-1.51-2.93-2.82a4.73,4.73,0,0,1-.33-1.28C10,14,10.31,13.87,10.71,13.85Z"/></g></g></svg>