<svg xmlns="http://www.w3.org/2000/svg" viewBox="0 0 18.17 33.53"><defs><style>.cls-1{fill:#f9b233;}</style></defs><title>icon_contraentrega</title><g id="Capa_2" data-name="Capa 2"><g id="Capa_1-2" data-name="Capa 1"><path class="cls-1" d="M1.63,21.45c1.43-.05,1.81,1,2.24,2.08a4.81,4.81,0,0,0,4.22,3.16c2.41.22,5,.14,5.79-2.68.89-3-1.42-4.14-3.74-4.94-1.51-.52-3.1-.8-4.62-1.3-2.63-.88-4.59-2.51-5-5.37A7.27,7.27,0,0,1,3.39,5.23C4.89,4,6.72,3.4,7.27,1.1,7.6-.28,10-.3,10.24.7c.65,3,3.54,3.6,5,5.58a9,9,0,0,1,1.28,2.23c.32.88.88,2-.38,2.57a2,2,0,0,1-2.63-.69,6.93,6.93,0,0,0-2.83-2.82c-2.39-1-4.5-.56-5.67,1.74s.19,4,2.43,4.86c1.84.69,3.77,1.14,5.63,1.78a6.81,6.81,0,0,1,5,6.22,7.26,7.26,0,0,1-3.83,7.09c-1.46.85-3.14,1.29-3.75,3.25-.35,1.08-2.13,1.31-2.47.64-1.66-3.2-5.79-3.74-7.25-7A11.63,11.63,0,0,1,0,23C-.14,21.86.64,21.48,1.63,21.45Z"/></g></g></svg>