<svg xmlns="http://www.w3.org/2000/svg" viewBox="0 0 191.55 191.55"><defs><style>.cls-1{fill:#31ad68;}</style></defs><title>icon-hecho</title><g id="Capa_2" data-name="Capa 2"><g id="Capa_1-2" data-name="Capa 1"><path class="cls-1" d="M191.55,86v19.93c-.21,1.08-.45,2.15-.64,3.23q-10.71,60.16-68.82,79c-5.28,1.71-10.81,2.23-16.2,3.41H86c-1-.2-1.93-.47-2.91-.6C32.88,184.3-3.81,138.74.32,88.2A96.19,96.19,0,0,1,88.19.33c44.91-3.75,87.08,25.24,99.68,68.46C189.52,74.44,190.37,80.23,191.55,86Zm-112,62c1.33-.11,2.06-1.17,2.9-2q12.34-12.31,24.65-24.64,22-21.95,43.9-43.9c3.09-3.09,3.08-3.1-.07-6.27q-4.44-4.47-8.92-8.92c-3.23-3.22-3.25-3.23-6.51,0q-26.17,26.18-52.31,52.39c-2.15,2.17-3.47,2.18-5.59,0-6.93-7.16-14.08-14.09-21.06-21.2-1.75-1.78-3.05-2.08-4.9-.13-3.74,3.93-7.61,7.73-11.49,11.51-1.56,1.51-1.86,2.72-.16,4.42q18.74,18.58,37.36,37.29A3.84,3.84,0,0,0,79.53,148Z" transform="translate(0 0)"/></g></g></svg>