<svg xmlns="http://www.w3.org/2000/svg" viewBox="0 0 37.39 26.87"><defs><style>.cls-1{fill:#878787;}</style></defs><title>icon-targeta</title><g id="Capa_2" data-name="Capa 2"><g id="Capa_1-2" data-name="Capa 1"><path class="cls-1" d="M37.39,3.15V23.94a4,4,0,0,1-1.21,2,4.19,4.19,0,0,1-2.85.93H4.52a10.68,10.68,0,0,1-1.13-.05A3.76,3.76,0,0,1,0,23.15V3.71a3.19,3.19,0,0,1,0-.54A3.83,3.83,0,0,1,4,0H33.42a4.21,4.21,0,0,1,1.87.41A3.94,3.94,0,0,1,37.39,3.15Zm-18.7,21.2H33.57A1.24,1.24,0,0,0,34.81,23c0-4,0-8,0-11.93,0-.35-.11-.46-.46-.46q-15.64,0-31.3,0c-.34,0-.47.1-.47.46,0,1.62,0,3.23,0,4.85V23a1.24,1.24,0,0,0,1.24,1.34H18.69Zm0-18.5H34.46c.24,0,.36-.1.36-.35,0-.58,0-1.17,0-1.75a1.16,1.16,0,0,0-1-1.1c-.21,0-.43,0-.65,0H4.3a5.62,5.62,0,0,0-.58,0A1.15,1.15,0,0,0,2.6,3.82c0,.46,0,.92,0,1.38,0,.65,0,.65.64.65Z"/><path class="cls-1" d="M31.73,19a2.78,2.78,0,0,1-4.3,2.34.53.53,0,0,0-.65,0,2.78,2.78,0,0,1-4.26-2.81,2.68,2.68,0,0,1,2.16-2.25,2.59,2.59,0,0,1,2.15.42.42.42,0,0,0,.55,0,2.79,2.79,0,0,1,4.28,1.64A3,3,0,0,1,31.73,19Z"/><path class="cls-1" d="M10.1,14.63H6a.38.38,0,0,1-.37-.38.41.41,0,0,1,.27-.46,1.38,1.38,0,0,1,.57-.07h7.32a1.48,1.48,0,0,1,.51,0,.41.41,0,0,1,.31.43.42.42,0,0,1-.38.43,2.17,2.17,0,0,1-.36,0Z"/></g></g></svg>