<svg xmlns="http://www.w3.org/2000/svg" viewBox="0 0 31.9 29.33"><defs><style>.cls-1{fill:#fff;stroke:#1d1d1b;stroke-miterlimit:10;}</style></defs><title>icon_relevante</title><g id="Capa_2" data-name="Capa 2"><g id="Capa_1-2" data-name="Capa 1"><path class="cls-1" d="M.5,10.9V8.48A12.19,12.19,0,0,1,2,4.32,7.61,7.61,0,0,1,13.68,2.44a8.06,8.06,0,0,1,1.87,2.42c.08.15.1.41.31.39s.21-.26.31-.41,0-.11.08-.16A7.81,7.81,0,0,1,27.46,1.82a9.19,9.19,0,0,1,3.86,9,13,13,0,0,1-4.47,8.38c-3.45,3.13-7,6.2-10.43,9.33-.47.43-.74.36-1.18,0q-4.38-4-8.79-8A19.26,19.26,0,0,1,2,15.39,16.31,16.31,0,0,1,.5,10.9Z"/></g></g></svg>