<svg xmlns="http://www.w3.org/2000/svg" viewBox="0 0 37.61 30.08"><defs><style>.cls-1{fill:#f9b233;}</style></defs><title>icon_perro_p</title><g id="Capa_2" data-name="Capa 2"><g id="Capa_1-2" data-name="Capa 1"><path class="cls-1" d="M37.61,10.63a9.28,9.28,0,0,1-5.51,3.29c-1.27.32-1.69.82-1.38,2.06a7.38,7.38,0,0,1-1,5.59A8.22,8.22,0,0,0,28.67,26c0,2.4-1.15,3.87-3,4-1.71.16-2.9-.86-3.45-3.2a1.25,1.25,0,0,0-1.39-1.15,22.42,22.42,0,0,1-5-.28c-.37-.1-1-.18-.8.56.57,1.78.1,3.13-1.62,3.85s-2.9-.49-3.86-1.77c-.15,0-.32,0-.37.05C8.1,29.4,7,30.47,5.16,29.93S2.9,27.76,2.84,26.09c-.09-2.31-.06-4.63-.07-6.94,0-.8,0-1.48-1.07-1.65A1.93,1.93,0,0,1,0,15.55a2.57,2.57,0,0,1,1.47-2.41c2.8-1.83,5.83-1.47,8.88-1a10.82,10.82,0,0,0,1.48.23c1.92,0,4.26.86,5.66-.33a20.12,20.12,0,0,0,5.2-6.77c.63-1.36,1.05-2.81,1.63-4.19C24.8-.08,25.74-.46,26.38.72c2,3.75,5.9,4.59,9.27,6.23a6.29,6.29,0,0,1,2,1ZM1.88,15.42c2.84,0,2.85,0,2.86,2.5,0,2.31,0,4.62,0,6.93a10.71,10.71,0,0,0,.11,2,1.24,1.24,0,0,0,1.26,1.16c.8,0,1-.62,1.06-1.3,0-.93,0-1.87.07-2.8s.3-1.68,1.33-1.75a8.4,8.4,0,0,1,3.9.17,19.74,19.74,0,0,0,9.18,1.25c1.81-.1,2.73.52,2.57,2.45-.07.89,0,2,1.21,1.94s1.25-1.08,1.18-2A7.92,7.92,0,0,1,28,20.74a6.14,6.14,0,0,0,.91-3.95c-.15-1.82-.53-2.07-2.14-1.29-.59.29-1.19.65-1.65-.05s.1-1.26.66-1.68a8,8,0,0,1,4.41-1.36,9.08,9.08,0,0,0,4.36-1.53c.51-.34,1.14-.66,1-1.42s-.81-.69-1.29-.91c-3-1.38-6.15-2.61-8.83-5-.83,4-3.74,6.6-6,9.64a3.27,3.27,0,0,1-2.87,1.37,52.22,52.22,0,0,1-8.38-.66A7.36,7.36,0,0,0,1.88,15.42Z"/></g></g></svg>