<svg id="Capa_1" data-name="Capa 1" xmlns="http://www.w3.org/2000/svg" viewBox="0 0 43.13 32.08"><defs><style>.cls-1{fill:#f9b233;}</style></defs><title>icon_perro_s</title><path class="cls-1" d="M43.13,21.76c-.29,2.31-1.46,4.3-2.34,6.4a10,10,0,0,1-.85,1.74,4.78,4.78,0,0,1-7.79.32c-1.27-1.6-2.49-3.25-3.73-4.88-.11-.16-.23-.31-.34-.45a.24.24,0,0,0-.16.17,3.88,3.88,0,0,1-3.11,2.34.92.92,0,0,0-.58.29,3.67,3.67,0,0,1-5.27,0,.89.89,0,0,0-.54-.28,3.85,3.85,0,0,1-3.11-2.28c-.16-.34-.24-.18-.37,0-1.28,1.68-2.55,3.38-3.85,5.05a4.78,4.78,0,0,1-6.47,1.11A4.09,4.09,0,0,1,3.1,29.63,59,59,0,0,1,.62,24a9.7,9.7,0,0,1,.84-8.53A37.28,37.28,0,0,1,7.8,7.26a19.46,19.46,0,0,1,4-3A1.65,1.65,0,0,0,12,4.05,15.48,15.48,0,0,1,19,.3a11.89,11.89,0,0,1,9,1.54c.65.39,1.3.78,1.94,1.18a4.07,4.07,0,0,1,1.12,1,.9.9,0,0,0,.25.22A23.35,23.35,0,0,1,37.6,9.6,40,40,0,0,1,42,15.87a10.52,10.52,0,0,1,1.16,3.62ZM21.66,19a3.61,3.61,0,0,1,1.85.38,2.61,2.61,0,0,1,1.57,1.95,3.3,3.3,0,0,1-1.92,3.53c-.1.05-.29,0-.28.2s.15.2.25.26a2.21,2.21,0,0,0,3.4-1.46c.15-.7.28-1.4.43-2.1a35.57,35.57,0,0,1,.93-4,17.51,17.51,0,0,1,2.24-4.12,5.84,5.84,0,0,0,1-4.16,32.87,32.87,0,0,0-1-3.91,2.07,2.07,0,0,0-1-1.16c-.66-.4-1.32-.81-2-1.2A10.37,10.37,0,0,0,18.4,2.2a19.66,19.66,0,0,0-4.64,2.51A2,2,0,0,0,13,6c-.14.51-.28,1-.41,1.54A11.7,11.7,0,0,0,12,10.05a6.43,6.43,0,0,0,1.34,4.16,13.6,13.6,0,0,1,2.54,6c.21,1.22.49,2.44.75,3.66a2.2,2.2,0,0,0,3.38,1.48c.12-.08.28-.14.27-.3s-.18-.12-.27-.17a3.51,3.51,0,0,1-.91-.6A3,3,0,0,1,19,19.87,3.77,3.77,0,0,1,21.66,19ZM11,6.89a.39.39,0,0,0-.3.13A24.1,24.1,0,0,0,8,9.44a38.7,38.7,0,0,0-5,6.75,8.1,8.1,0,0,0-.78,7.22c.61,1.71,1.42,3.35,2.18,5a3.09,3.09,0,0,0,5.47.6c1.34-1.74,2.63-3.53,4-5.23a2.67,2.67,0,0,0,.58-2.47,15.22,15.22,0,0,0-2.61-6.38,7.57,7.57,0,0,1-1.36-6C10.59,8.26,10.79,7.59,11,6.89ZM32.2,6.82c.1.36.16.62.24.87a8.87,8.87,0,0,1,.32,3.69,8.09,8.09,0,0,1-1.54,3.77,12.55,12.55,0,0,0-1.55,2.74,30.19,30.19,0,0,0-1.08,4.31.91.91,0,0,0,.2.84c1.52,2,3,4,4.53,5.95a3.11,3.11,0,0,0,5.51-.59c.65-1.42,1.29-2.86,1.91-4.3a8.29,8.29,0,0,0,.1-6.69,14.86,14.86,0,0,0-1.32-2.33,34.13,34.13,0,0,0-6.08-7.31A7.08,7.08,0,0,0,32.2,6.82ZM21.63,20.69a3.14,3.14,0,0,0-1,.14,1.15,1.15,0,0,0-.73,1.76,1.94,1.94,0,0,0,3.31.07,1.17,1.17,0,0,0-.8-1.86A2.53,2.53,0,0,0,21.63,20.69Zm.72,6.24c-.78-.68-1-.67-1.45,0A1.71,1.71,0,0,0,22.35,26.93Z"/><path class="cls-1" d="M27.84,8.78A4.45,4.45,0,0,1,30,9.61a.78.78,0,0,1,.17,1.13,3.89,3.89,0,0,1-3.51,2.13.42.42,0,0,0-.49.4c-.11.58-.25,1.15-.38,1.72a.8.8,0,0,1-.68.66.81.81,0,0,1-1-.93,32.9,32.9,0,0,1,.95-4.13A2.92,2.92,0,0,1,27.84,8.78Z"/><path class="cls-1" d="M15.48,8.78a3,3,0,0,1,2.85,2.41c.25,1.12.49,2.25.73,3.37a.85.85,0,0,1-.61,1.08.82.82,0,0,1-1-.69c-.14-.56-.26-1.12-.37-1.68a.43.43,0,0,0-.49-.4,3.91,3.91,0,0,1-3.52-2.14.81.81,0,0,1,.14-1.1A4.7,4.7,0,0,1,15.48,8.78Z"/><path class="cls-1" d="M18.75,7.6a.94.94,0,0,1-.47.78.76.76,0,0,1-.83-.06,3.16,3.16,0,0,1-.81-.9.82.82,0,0,1,.2-1.06.78.78,0,0,1,1,0A2.23,2.23,0,0,1,18.75,7.6Z"/><path class="cls-1" d="M26.67,6.93a2,2,0,0,1-1.34,1.54.83.83,0,0,1-.8-1.15,2.83,2.83,0,0,1,.87-1,.75.75,0,0,1,.84,0A.87.87,0,0,1,26.67,6.93Z"/></svg>