<svg xmlns="http://www.w3.org/2000/svg" viewBox="0 0 27.39 27.42"><defs><style>.cls-1{fill:#f9b233;}</style></defs><title>icon_caro</title><g id="Capa_2" data-name="Capa 2"><g id="Capa_1-2" data-name="Capa 1"><path class="cls-1" d="M13.7,27.4c-2.28,0-4.57,0-6.86,0-1.23,0-1.69-.49-1.68-1.68,0-3.23,0-6.46,0-9.69,0-1.19-.41-1.64-1.57-1.53a11.21,11.21,0,0,1-1.64,0c-.67,0-1.5.22-1.87-.56s.41-1.24.87-1.7C2.65,10.55,4.35,8.87,6,7.19,8.22,5,10.42,2.85,12.57.64,13.36-.18,14-.23,14.82.59c4,4,8,8,11.92,11.93.38.38.84.79.57,1.41s-.87.56-1.42.59c-3.61.19-3.61.19-3.61,3.8,0,2.28,0,4.57,0,6.86,0,2.13-.1,2.21-2.16,2.22ZM2.9,12.5l.15.37H4.51c2.25,0,2.31.07,2.31,2.39,0,3,.06,6.06,0,9.09,0,1.34.44,1.7,1.72,1.67q5.3-.11,10.58,0c1.26,0,1.63-.41,1.6-1.63-.06-3.28,0-6.56,0-9.83,0-1.21.45-1.76,1.66-1.69.72,0,1.44,0,2.55,0-3.74-3.74-7.18-7.17-10.6-10.61-.44-.44-.75-.32-1.13,0Z"/><path class="cls-1" d="M10.87,17.72c.8-.09,1,.34,1.27.69a1.86,1.86,0,0,0,2.32.81,1.38,1.38,0,0,0,1-1.19,1.22,1.22,0,0,0-.75-1.33,18.13,18.13,0,0,0-2.12-.7c-1.4-.42-2.48-1.18-2.57-2.74a2.74,2.74,0,0,1,2-3c.94-.27.91-2.1,2.11-1.36.68.42,1.11,1.29,1.94,1.69a2.37,2.37,0,0,1,1.19,1.65c.1.44.41,1-.28,1.29s-.91-.13-1.12-.67A2.22,2.22,0,0,0,13,11.5a1.47,1.47,0,0,0-1.35,1.2,1.43,1.43,0,0,0,1,1.62c.73.29,1.52.46,2.27.69a2.74,2.74,0,0,1,2.18,2.38,3,3,0,0,1-1.45,2.91c-.55.35-1.07.63-1.24,1.37s-1,.72-1.16.34c-.44-1.4-2.06-1.69-2.54-3C10.57,18.52,10.14,17.92,10.87,17.72Z"/></g></g></svg>