<svg xmlns="http://www.w3.org/2000/svg" viewBox="0 0 38.25 33.53"><defs><style>.cls-1{fill:#008d36;}</style></defs><title>icon-envio</title><g id="Capa_2" data-name="Capa 2"><g id="Capa_1-2" data-name="Capa 1"><path class="cls-1" d="M12.92,26.77H6.1a.8.8,0,0,1-.9-.91v-9.5a.78.78,0,0,1,.59-.83,1.23,1.23,0,0,1,.27,0H19.69c.64,0,.92.29.92.93v9.43a.79.79,0,0,1-.9.9Z"/><path class="cls-1" d="M13.46,27.48H20.8c.43,0,.47-.05.47-.48V17.68c0-.46.11-.57.58-.57.78,0,1.56,0,2.34,0a.94.94,0,0,1,.7.28l5.1,5.1a1,1,0,0,1,.29.72c0,2,0,3.91,0,5.87a.75.75,0,0,1-.81.82H28a.33.33,0,0,1-.34-.2,2.92,2.92,0,0,0-4.8-.54,2.21,2.21,0,0,0-.37.55.28.28,0,0,1-.3.19h-9.6a.33.33,0,0,1-.31-.18,2.83,2.83,0,0,0-2.71-1.57,2.84,2.84,0,0,0-2.45,1.52.38.38,0,0,1-.39.23H5.94a.73.73,0,0,1-.74-.73v-.94a.77.77,0,0,1,.73-.75c.13,0,.26,0,.39,0Zm11.81-5H28c.29,0,.41-.21.26-.46a1.24,1.24,0,0,0-.18-.21c-.34-.34-.67-.68-1-1l-2.39-2.39a.56.56,0,0,0-.47-.19H22.65c-.34,0-.39,0-.39.38V22.1c0,.32,0,.36.36.36Z"/><path class="cls-1" d="M38.25,14.62a12,12,0,0,1-2.39,7.23,12.21,12.21,0,0,1-4.14,3.55c-.16.09-.22.05-.22-.13q0-.86,0-1.71c0-.15.09-.22.21-.3A10.37,10.37,0,0,0,35.43,19a9.77,9.77,0,0,0,1-3.79A10,10,0,0,0,34,8a9.94,9.94,0,0,0-6.43-3.61A10,10,0,0,0,19.08,7a10.05,10.05,0,0,0-3.27,6.37c0,.35-.06.71-.08,1.06,0,.15-.06.2-.2.2H14.1c-.17,0-.2-.06-.2-.22a11.7,11.7,0,0,1,1-4.77,11.68,11.68,0,0,1,2.37-3.51,11.89,11.89,0,0,1,6.84-3.56A11.56,11.56,0,0,1,31.5,3.72a12,12,0,0,1,6.56,8.77A10.11,10.11,0,0,1,38.25,14.62Z"/><path class="cls-1" d="M26.59,13.3l1.52-1.55L30.16,9.7a.41.41,0,0,1,.66,0,.42.42,0,0,1,0,.7l-2.45,2.46L26.5,14.71c-.16.16-.32.33-.56.22a.63.63,0,0,1-.38-.61v-8c0-.38.13-.5.5-.5s.47.14.47.48V13A.49.49,0,0,0,26.59,13.3Z"/><path class="cls-1" d="M9.65,28.63a2.45,2.45,0,1,1-2.44,2.45A2.47,2.47,0,0,1,9.65,28.63ZM11,31.07A1.31,1.31,0,1,0,9.64,32.4,1.32,1.32,0,0,0,11,31.07Z"/><path class="cls-1" d="M22.61,31.07A2.45,2.45,0,1,1,25,33.53,2.45,2.45,0,0,1,22.61,31.07Zm1.13,0A1.34,1.34,0,0,0,25,32.4a1.36,1.36,0,0,0,1.34-1.31,1.35,1.35,0,0,0-1.32-1.33A1.33,1.33,0,0,0,23.74,31.08Z"/><path class="cls-1" d="M26.07,2.22H25c-.33,0-.44-.12-.45-.45V.46c0-.35.11-.46.45-.46h2.26c.3,0,.42.11.43.41v1.4c0,.29-.13.4-.42.41Z"/><path class="cls-1" d="M1.88,24.22c.53,0,1.06,0,1.59,0,.22,0,.3.08.29.3,0,.68.07.63-.61.63H.35c-.32,0-.35,0-.35-.34,0-.63-.08-.59.59-.59Z"/><path class="cls-1" d="M1.88,20.66c.54,0,1.07,0,1.61,0,.2,0,.27.07.27.27,0,.7.07.63-.62.63H.33c-.3,0-.33,0-.33-.32,0-.68-.06-.57.57-.58Z"/><path class="cls-1" d="M1.9,17.25c.53,0,1.06,0,1.59,0,.19,0,.27.07.27.27,0,.72.06.64-.62.64H.31c-.28,0-.31,0-.31-.32,0-.65-.07-.58.57-.59Z"/><path class="cls-1" d="M35.06,6.14,34.93,6l-.83-.76c-.08-.07-.1-.13,0-.21s.38-.42.57-.63a.25.25,0,0,1,.39,0l.7.63a.24.24,0,0,1,.05.35c-.2.23-.41.45-.62.68C35.14,6.11,35.1,6.12,35.06,6.14Z"/></g></g></svg>