<svg xmlns="http://www.w3.org/2000/svg" viewBox="0 0 25.37 23.24"><defs><style>.cls-1{fill:#f6f6f6;stroke:#f6f6f6;stroke-miterlimit:10;}</style></defs><title>icon-carrito</title><g id="Capa_2" data-name="Capa 2"><g id="Capa_1-2" data-name="Capa 1"><path class="cls-1" d="M.5,1.07A1.33,1.33,0,0,1,1.72.5c.83,0,1.66,0,2.49,0,1,0,1.23.18,1.49,1.12C6.82,5.69,8,9.76,9.06,13.83a.74.74,0,0,0,.85.66c2.9,0,5.81,0,8.71,0a.78.78,0,0,0,.85-.56c.9-2.12,1.84-4.23,2.76-6.35.28-.62.26-.64-.43-.64H12a4.87,4.87,0,0,1-.54,0,1,1,0,0,1-.92-1,.91.91,0,0,1,1-.89H23.68a1.21,1.21,0,0,1,1.19.58v.76l-2.7,6.14c-.45,1-.9,2-1.33,3.07a1.15,1.15,0,0,1-1.21.8H8.76c-.75,0-1-.19-1.21-.91C6.41,11.36,5.27,7.24,4.16,3.12c-.16-.56-.38-.79-1-.73s-1.05,0-1.57,0A1.13,1.13,0,0,1,.5,1.82Z"/><path class="cls-1" d="M9.75,20.69a2.07,2.07,0,0,1-2.07,2,2.13,2.13,0,0,1-2.1-2.11,2.1,2.1,0,0,1,2.13-2.06A2,2,0,0,1,9.75,20.69Z"/><path class="cls-1" d="M20.5,18.57a2,2,0,0,1,2,2.12,2.09,2.09,0,0,1-2.14,2,2.16,2.16,0,0,1-2-2.12A2.09,2.09,0,0,1,20.5,18.57Z"/></g></g></svg>