<svg xmlns="http://www.w3.org/2000/svg" viewBox="0 0 32.25 20.06"><defs><style>.cls-1{fill:#fff;}</style></defs><title>icon-menu</title><g id="Capa_2" data-name="Capa 2"><g id="Capa_1-2" data-name="Capa 1"><path class="cls-1" d="M16.13,0H31.71c.54,0,.54,0,.54.54V3.89c0,.46,0,.47-.46.47H.72c-.12,0-.24,0-.35,0C.1,4.38,0,4.26,0,4,0,3,0,2,0,1S0,0,1,0Z"/><path class="cls-1" d="M16.13,12.19H.54c-.54,0-.54,0-.54-.54V8.3c0-.46,0-.47.47-.47H32c.17,0,.25.09.25.26v3.84c0,.17-.08.26-.25.26H16.13Z"/><path class="cls-1" d="M16.13,20.06H.54c-.54,0-.54,0-.54-.54V16.21c0-.51,0-.51.5-.51H31.68c.57,0,.57,0,.57.58v3.28c0,.5,0,.5-.5.5Z"/></g></g></svg>