<svg xmlns="http://www.w3.org/2000/svg" viewBox="0 0 40.04 37.91"><defs><style>.cls-1{fill:#f9b233;}</style></defs><title>icon_pero_g</title><g id="Capa_2" data-name="Capa 2"><g id="Capa_1-2" data-name="Capa 1"><path class="cls-1" d="M0,10.65C2.15,9.09,3,9,4.87,10.94a5.3,5.3,0,0,0,4.28,1.69c3.95-.09,7.91-.06,11.87,0,1.44,0,2.17-.35,2.29-2,.23-3,.74-6,1.14-9,.16-1.2,1-2.32,1.9-1.23,2.49,2.94,6.27,2.76,9.28,4.36a13.75,13.75,0,0,0,2.62,1c1.94.56,2.19,1.69,1.29,3.34a11.13,11.13,0,0,0-.94,2.22C38,13.35,36.91,14.34,34.78,14c-1.19-.19-1.72.41-1.67,1.62a23.42,23.42,0,0,1-1.32,9.05c-.72,2-.23,4.51-.28,6.79a30.1,30.1,0,0,1-.07,3,3.37,3.37,0,0,1-3.81,3.28c-1.83-.1-3-1.38-3.13-3.51s-.09-4.17,0-6.24c.06-1.49-.49-2.05-2-2-2,.08-4,0-6,0-1.13,0-1.29.4-.73,1.33,1,1.66,2,3.32,3,5,1.09,2,.58,4.1-1.14,5.06s-3.53.34-4.79-1.59c-.48-.73-.9-1.49-1.35-2.24a7.5,7.5,0,0,0-1.62-2.05c0,.93,0,1.86,0,2.79a3.24,3.24,0,0,1-3.24,3.39,3,3,0,0,1-3.48-3.05,106.19,106.19,0,0,1-.14-14.27c.1-2.93-.52-5.26-2.93-7ZM5,25.11c0,2.82,0,5.64,0,8.45,0,1,.16,2.1,1.32,2.15s1.31-1.12,1.32-2.08c0-2.28,0-4.56,0-6.84,0-2.62.33-2.94,2.86-2.95q6.74,0,13.49,0c2.39,0,2.67.3,2.69,2.66,0,2.55,0,5.1,0,7.65,0,.81.3,1.57,1.19,1.6s1.34-.72,1.37-1.63c0-.27,0-.54,0-.8.11-4.19-.57-8.45,1.45-12.45.41-.8.6-2.21-.5-2.73-3-1.43-5.63-3.6-9.29-3.39C17,15,13,14.68,9.08,14.85c-2.26.09-4.06-.39-5.48-2.2-.34-.43-.86-1.42-1.55-.62-.48.56.36,1.09.8,1.39,1.84,1.23,2.3,2.93,2.15,5S5,22.89,5,25.11ZM26.39,3.52c-.23,1.77-.4,3.41-.67,5-.79,4.77-.81,4.77,3.59,6.65l.18.09c.86.44,1.51.37,1.39-.78-.26-2.4,1.1-3,3.07-2.69,2.3.32,2.93-1.28,3.35-2.91C37.79,7,35.84,7.44,35,6.85,32.43,5.11,29,5.75,26.39,3.52ZM11.32,26.08c-1.18-.07-1.76.24-1,1.47,1.4,2.35,2.76,4.73,4.18,7.06.44.72,1,1.63,2,1s.71-1.46.23-2.28c-1.18-2-2.37-4-3.53-6.05A1.87,1.87,0,0,0,11.32,26.08Z"/></g></g></svg>