<svg xmlns="http://www.w3.org/2000/svg" viewBox="0 0 38.72 38.72"><defs><style>.cls-1{fill:#f59d0d;}</style></defs><title>icon-calendario</title><g id="Capa_2" data-name="Capa 2"><g id="Capa_1-2" data-name="Capa 1"><path class="cls-1" d="M4.84,6.05V1.21a1.21,1.21,0,0,1,2.42,0V6.05a1.21,1.21,0,0,1-2.42,0ZM25.41,7.26a1.21,1.21,0,0,0,1.21-1.21V1.21a1.21,1.21,0,0,0-2.42,0V6.05A1.21,1.21,0,0,0,25.41,7.26ZM38.72,29A9.68,9.68,0,1,1,29,19.36,9.69,9.69,0,0,1,38.72,29ZM36.3,29A7.26,7.26,0,1,0,29,36.3,7.27,7.27,0,0,0,36.3,29ZM9.68,14.52H4.84v4.84H9.68ZM4.84,26.62H9.68V21.78H4.84Zm7.26-7.26h4.84V14.52H12.1Zm0,7.26h4.84V21.78H12.1ZM2.42,28.8V12.1H29v4.84h2.42V7.5a2.64,2.64,0,0,0-2.62-2.66h-1V6.05a2.42,2.42,0,1,1-4.84,0V4.84H8.47V6.05a2.42,2.42,0,0,1-4.84,0V4.84h-1A2.64,2.64,0,0,0,0,7.5V28.8a2.64,2.64,0,0,0,2.62,2.66H16.94V29H2.62A.23.23,0,0,1,2.42,28.8ZM24.2,19.36V14.52H19.36v4.84ZM32.67,29H29V25.41a1.21,1.21,0,1,0-2.42,0v4.84a1.21,1.21,0,0,0,1.21,1.21h4.84a1.21,1.21,0,0,0,0-2.42Z"/></g></g></svg>