<svg xmlns="http://www.w3.org/2000/svg" viewBox="0 0 25.89 24.65"><defs><style>.cls-1{fill:#fff;}</style></defs><title>icono_filtro</title><g id="Capa_2" data-name="Capa 2"><g id="Capa_1-2" data-name="Capa 1"><path class="cls-1" d="M0,2c0-.6,0-1.2,0-1.8C0,0,0,0,.23,0H.46q12.48,0,25,0c.38,0,.49.07.46.46a14.24,14.24,0,0,0,0,1.46,1.2,1.2,0,0,1-1,.68,1.1,1.1,0,0,0-.85.55Q20,8.81,15.87,14.44a1.6,1.6,0,0,0-.31,1c0,2.45,0,4.91,0,7.36,0,.62,0,1.24,0,1.86h-.11c-1.52-1.07-3-2.15-4.57-3.18a1.27,1.27,0,0,1-.61-1.21c0-1.61,0-3.22,0-4.83a1.72,1.72,0,0,0-.33-1Q5.8,8.74,1.7,3.07A.88.88,0,0,0,1,2.62,1.1,1.1,0,0,1,0,2Zm13.05.6H5.81c-.14,0-.34-.07-.41.09s.09.26.17.38c1.34,1.8,2.7,3.6,4,5.41a.6.6,0,0,0,.85.23c2.09-.87,4.16-1.81,6.3-2.55a6.29,6.29,0,0,0,3.72-3c.09-.16.32-.3.25-.47s-.34-.09-.52-.1Z"/></g></g></svg>