<svg xmlns="http://www.w3.org/2000/svg" viewBox="0 0 61 61"><defs><style>.cls-1{fill:#fff;stroke:#1d1d1b;stroke-miterlimit:10;}</style></defs><title>Recurso 12</title><g id="Capa_2" data-name="Capa 2"><g id="Capa_1-2" data-name="Capa 1"><circle class="cls-1" cx="30.5" cy="30.5" r="30"/><path class="cls-1" d="M15.05,28.73V26.32a12.24,12.24,0,0,1,1.52-4.17,7.61,7.61,0,0,1,11.66-1.88,8.19,8.19,0,0,1,1.87,2.42c.08.15.1.41.31.4s.21-.27.31-.42.05-.1.08-.16A7.81,7.81,0,0,1,42,19.65a9.2,9.2,0,0,1,3.87,9,13,13,0,0,1-4.48,8.39c-3.45,3.13-7,6.2-10.42,9.32-.48.43-.75.37-1.19,0q-4.38-4-8.79-8a19.26,19.26,0,0,1-4.43-5.13A17,17,0,0,1,15.05,28.73Z"/></g></g></svg>